# Blender v2.79 (sub 0) OBJ File: ''
# www.blender.org
o Cube.001
v 0.542519 0.683373 1.814560
v 0.542519 1.586716 1.814560
v 0.542519 0.683373 0.911217
v 0.542519 1.586716 0.911217
v 1.445862 0.683373 1.814560
v 1.445862 1.586716 1.814560
v 1.445862 0.683373 0.911217
v 1.445862 1.586716 0.911217
vn -1.0000 0.0000 0.0000
vn 0.0000 0.0000 -1.0000
vn 1.0000 0.0000 0.0000
vn 0.0000 0.0000 1.0000
vn 0.0000 -1.0000 0.0000
vn 0.0000 1.0000 0.0000
s off
f 2//1 3//1 1//1
f 4//2 7//2 3//2
f 8//3 5//3 7//3
f 6//4 1//4 5//4
f 7//5 1//5 3//5
f 4//6 6//6 8//6
f 2//1 4//1 3//1
f 4//2 8//2 7//2
f 8//3 6//3 5//3
f 6//4 2//4 1//4
f 7//5 5//5 1//5
f 4//6 2//6 6//6
o Cube
v 1.000000 -0.945463 1.262335
v 1.000000 -0.945463 3.262335
v -1.000000 -0.945463 3.262335
v -1.000000 -0.945463 1.262334
v 1.000000 1.054537 1.262335
v 0.999999 1.054537 3.262335
v -1.000000 1.054537 3.262334
v -1.000000 1.054537 1.262335
vn 0.0000 -1.0000 0.0000
vn 0.0000 1.0000 -0.0000
vn 1.0000 -0.0000 0.0000
vn -0.0000 -0.0000 1.0000
vn -1.0000 -0.0000 -0.0000
vn 0.0000 0.0000 -1.0000
s off
f 9//7 11//7 12//7
f 16//8 14//8 13//8
f 13//9 10//9 9//9
f 14//10 11//10 10//10
f 11//11 16//11 12//11
f 9//12 16//12 13//12
f 9//7 10//7 11//7
f 16//8 15//8 14//8
f 13//9 14//9 10//9
f 14//10 15//10 11//10
f 11//11 15//11 16//11
f 9//12 12//12 16//12
o Cube.002
v -1.509940 1.195167 4.119454
v -1.155950 2.765379 3.458797
v -1.625874 0.870065 3.284652
v -1.271884 2.440277 2.623995
v -0.633122 0.981305 4.080971
v -0.279133 2.551517 3.420314
v -0.749056 0.656203 3.246169
v -0.395066 2.226415 2.585512
vn -0.9706 0.2367 0.0426
vn -0.1283 -0.3599 -0.9241
vn 0.9706 -0.2367 -0.0426
vn 0.1283 0.3599 0.9241
vn -0.2035 -0.9025 0.3797
vn 0.2035 0.9025 -0.3797
s off
f 18//13 19//13 17//13
f 20//14 23//14 19//14
f 24//15 21//15 23//15
f 22//16 17//16 21//16
f 19//17 21//17 17//17
f 24//18 18//18 22//18
f 18//13 20//13 19//13
f 20//14 24//14 23//14
f 24//15 22//15 21//15
f 22//16 18//16 17//16
f 19//17 23//17 21//17
f 24//18 20//18 18//18
